<svg fill="#000" version="1.1" id="Capa_1" xmlns="http://www.w3.org/2000/svg" width="800" height="800" viewBox="0 0 795.601 795.601" xml:space="preserve"><g fill="#1F4A21"><path d="M569 551.9c-.2-1.6-.6-3.199-1.1-4.6-3.8-14.5-12.4-40.9-16.3-52.7-.4-2.1-1.101-4-2-5.899v-.101a28.723 28.723 0 0 0-11.101-12.3c-.3-.2-.899-.5-1.7-.9-.3-.199-.699-.3-1-.5-9.5-4.5-38.6-16.1-38.6-16.1-14.6-6.3-29.6-11.7-45-17.1-2.7 11.399-28.8 87.3-33 97.8l-3.3-70.5c1.1-1.7 1.899-3.601 2.7-5.4l10.899-21.5c-7.7 6.4-19.1 10.4-32 10.4-12.5 0-23.8-3.9-31.399-10l10.6 21.1c.9 1.8 1.6 3.7 2.7 5.4l-3.3 70.5c-4.101-10.5-30.2-86.4-33-97.8-15.4 5.5-30.5 10.899-45 17.1 0 0-29.1 11.6-38.6 16.1-.3.2-.7.301-1 .5-.8.4-1.4.7-1.7.9-4.8 2.9-8.7 7.2-11.1 12.3v.101c-.9 1.899-1.5 3.899-2 5.899-3.9 11.8-12.5 38.2-16.3 52.7-.5 1.5-.9 3-1.1 4.6-.2 1.4-.3 2.801-.3 4.301 0 15.5 12.6 28.1 28.1 28.1h287c15.5 0 28.1-12.6 28.1-28.1.201-1.5.001-2.901-.199-4.301zM471.101 311.1c0-5 1-23 1-27.1 0-40.2-32.601-72.7-72.7-72.7H396.2c-40.2 0-72.7 32.6-72.7 72.7 0 4.1 1 22.1 1 27.1-1.8.1-18-3.8-16.3 15.7 3.7 41.4 19.5 33.3 19.9 33.3 7.8 24.9 19.8 40.8 31.6 51 18.4 15.8 36.3 17.5 36.6 17.5h3c.301 0 18.101-1.7 36.4-17.3 11.9-10.1 24-26.1 31.8-51.1.5 0 16.2 8 19.9-33.3 1.701-19.6-14.5-15.7-16.299-15.8zM203.4 550.4c.1-1.1.5-3.199.7-4.3.3-1.8.9-3.5 1.4-5.3 4.3-14.4 11.6-38.5 16.2-52.4.7-2.8 1.6-5.6 2.8-8.3l3.1-8.899c-10-4-20.2-7.7-30.6-11.4-2.4 10-25.1 76.1-28.7 85.3l-2.9-61.5c1-1.5 1.6-3.1 2.4-4.7l9.5-18.8c-6.7 5.601-16.7 9.101-27.9 9.101-10.9 0-20.7-3.4-27.4-8.7l9.3 18.399c.8 1.601 1.4 3.2 2.4 4.7l-2.9 61.5c-3.6-9.2-26.4-75.3-28.7-85.3-13.4 4.8-26.6 9.5-39.2 14.9 0 0-25.4 10.199-33.6 14-.3.1-.6.3-.9.399-.7.4-1.2.601-1.5.8-4.2 2.5-7.6 6.301-9.7 10.7v.101c-.8 1.6-1.3 3.399-1.7 5.199-3.4 10.301-10.9 33.301-14.2 45.9-.4 1.3-.8 2.7-1 4-.2 1.2-.3 2.5-.3 3.7C0 573 11 584 24.5 584H211.6c-5.3-8.101-8.5-17.7-8.5-28.101 0-1.599 0-3.599.3-5.499zM88.7 388.9c6.8 21.7 17.3 35.6 27.6 44.4 16.1 13.8 31.7 15.3 31.9 15.3h2.6c.3 0 15.7-1.5 31.7-15.1 10.4-8.8 20.9-22.7 27.8-44.6.4 0 14.2 7 17.4-29.1 1.5-17-12.7-13.6-14.2-13.7 0-4.3.8-20 .8-23.6 0-35-28.4-63.4-63.4-63.4h-2.8c-35 0-63.4 28.4-63.4 63.4 0 3.6.9 19.3.9 23.6-1.5.1-15.7-3.3-14.2 13.7 3.1 36 16.9 29.1 17.3 29.1zM795.101 535.1c-.2-2.3-.5-4.6-.801-6.8 0 0-1.3-7.4-1.6-8.5-2.9-12.9-11-22.4-21.9-29.8-2-1.4-4.1-2.601-6.3-3.7-2.8-1.5-45.399-15.5-46.5-15.8.3 1.5.4 3.1.5 4.8 5.9 4.2 23.4 19.2 15.5 47.3 0 0-12.5-14.899-25.3-16.899-12.2 21.199-32.9 48.1-44.1 55.199-11.2-7.1-31.9-33.899-44.101-55.199-12.8 1.899-25.3 16.899-25.3 16.899-7.9-28.1 9.5-43.1 15.5-47.3.1-1.7.2-3.4.5-4.8-.8.3-25.9 8.5-38.9 13 .601 1.6 1.101 3.3 1.5 4.899 4.601 13.9 12.4 37.9 16.2 52.4.2.6 1.7 7.2 2.101 9.6.3 1.9.3 3.9.3 5.801 0 10.399-3.101 20-8.5 28.1h179.2c9.8 0 18.1-3 25-10.3 5.399-5.7 6.899-12.601 7.3-20 .1-1.3.2-6.9.2-6.9s-.499-11.899-.499-12z"/><path d="M587.4 401.3c1 3.7 1.7 7.1 1.6 10.4 0 1.1-.1 2.199-.3 3.199-.9 3.101-7.5 13.601-8.5 15.4 11.6 12.5 26.8 15.3 41.9 18.5 4.5.9 9 1.5 13.8 2.1 1.6.301 3.1.601 4.7.9l-7.7 22.4s-.2 32.699 31.399 52.6h.2c31.601-19.9 31.4-52.6 31.4-52.6l-7.7-22.4c1.6-.3 3.2-.6 4.7-.9 4.8-.6 9.399-1.199 13.8-2.1 15.1-3.2 30.4-6.1 41.9-18.5-1-1.8-7.601-12.2-8.5-15.4-.2-1.1-.301-2.1-.301-3.199 0-3.301.601-6.801 1.601-10.4 1-3.5 2.1-7 3.1-10.5 5.101-11.4 8-24 8-37.3 0-49.5-39.3-89.7-88.2-90.6h-.2c-48.9.9-88.2 41.1-88.2 90.6 0 13.3 2.8 25.9 8 37.3 1.501 3.6 2.601 7 3.501 10.5z"/></g></svg>